# Blender v3.5.0 OBJ File: 'custom_table.blend'
# www.blender.org
mtllib custom_stick.mtl
o Plane.001
v -0.120000 0.000000 1.000000
v 0.120000 0.000000 1.000000
v 0.000000 0.000000 0.000000
v -0.120000 0.000000 0.300000
v 0.120000 0.000000 0.300000
v 0.210000 0.000000 0.300000
v -0.210000 0.000000 0.300000
v -0.120000 0.100000 0.300000
v -0.120000 0.100000 1.000000
v 0.120000 0.100000 1.000000
v 0.120000 0.100000 0.300000
v 0.000000 0.100000 0.000000
v -0.210000 0.100000 0.300000
v 0.210000 0.100000 0.300000
vt 0.000000 0.000000
vt 0.000000 0.000000
vt 0.000000 0.000000
vt 0.000000 0.000000
vt 0.000000 0.000000
vt 0.000000 0.000000
vt 0.000000 0.000000
vt 0.000000 0.000000
vt 0.000000 0.000000
vt 0.000000 0.000000
vt 0.000000 0.000000
vt 0.000000 0.000000
vt 0.000000 0.000000
vt 0.000000 0.000000
vn 0.0000 -1.0000 0.0000
vn 0.0000 1.0000 0.0000
vn 1.0000 0.0000 0.0000
vn -1.0000 0.0000 0.0000
vn 0.0000 0.0000 1.0000
vn 0.8192 0.0000 -0.5735
vn -0.8192 0.0000 -0.5735
usemtl None
s off
f 4/1/1 3/2/1 5/3/1
f 11/4/2 12/5/2 8/6/2
f 5/3/3 10/7/3 2/8/3
f 1/9/4 8/6/4 4/1/4
f 4/1/5 13/10/5 7/11/5
f 3/2/6 14/12/6 6/13/6
f 2/8/5 9/14/5 1/9/5
f 6/13/5 11/4/5 5/3/5
f 7/11/7 12/5/7 3/2/7
f 2/8/1 1/9/1 4/1/1
f 4/1/1 7/11/1 3/2/1
f 3/2/1 6/13/1 5/3/1
f 5/3/1 2/8/1 4/1/1
f 8/6/2 9/14/2 10/7/2
f 11/4/2 14/12/2 12/5/2
f 8/6/2 10/7/2 11/4/2
f 12/5/2 13/10/2 8/6/2
f 5/3/3 11/4/3 10/7/3
f 1/9/4 9/14/4 8/6/4
f 4/1/5 8/6/5 13/10/5
f 3/2/6 12/5/6 14/12/6
f 2/8/5 10/7/5 9/14/5
f 6/13/5 14/12/5 11/4/5
f 7/11/7 13/10/7 12/5/7
