# Blender v3.5.0 OBJ File: 'custom_table.blend'
# www.blender.org
mtllib custom_table.mtl
o Plane
v -1.192355 0.000000 2.505538
v -1.324355 0.000000 2.380138
v -1.285693 0.000000 2.468810
v 1.315645 0.000000 2.380138
v 1.183645 0.000000 2.505538
v 1.276984 0.000000 2.468810
v -1.192355 0.000000 -2.510462
v -1.324355 0.000000 -2.385062
v -1.285693 0.000000 -2.473733
v 1.183645 0.000000 -2.510462
v 1.315645 0.000000 -2.385062
v 1.276984 0.000000 -2.473733
v 1.276984 0.300000 2.468810
v 1.183645 0.300000 2.505538
v 1.315645 0.300000 -2.385062
v 1.315645 0.300000 2.380138
v -1.192355 0.300000 2.505538
v -1.285693 0.300000 2.468810
v -1.324355 0.300000 2.380138
v -1.324355 0.300000 -2.385062
v -1.324355 0.100000 -2.385062
v -1.324355 0.100000 2.380138
v -1.285693 0.100000 2.468810
v -1.192355 0.100000 2.505538
v 1.183645 0.100000 2.505538
v 1.276984 0.100000 2.468810
v 1.315645 0.100000 2.380138
v 1.315645 0.100000 -2.385062
v 1.276984 0.100000 -2.473733
v 1.183645 0.100000 -2.510462
v -1.192355 0.100000 -2.510462
v -1.285693 0.100000 -2.473733
v 1.276984 0.300000 -2.473733
v 1.183645 0.300000 -2.510462
v -1.192355 0.300000 -2.510462
v -1.285693 0.300000 -2.473733
v -1.264355 0.000000 -0.002462
v -1.264355 0.000000 -2.282462
v -1.211634 0.000000 -2.409741
v -1.211634 0.000000 -2.155183
v -1.084355 0.000000 -2.462462
v -0.904355 0.000000 -2.282462
v -0.957075 0.000000 -2.155183
v -0.957075 0.000000 -2.409741
v 0.895645 0.000000 -2.282462
v 1.042647 0.000000 -0.168794
v 0.948366 0.000000 -0.129741
v 0.948366 0.000000 -2.155183
v 0.948366 0.000000 0.124817
v 0.895645 0.000000 -0.002462
v 0.948366 0.000000 -2.409741
v 1.108644 0.000000 -2.116130
v 1.075645 0.000000 -2.102462
v 1.075645 0.000000 -0.182462
v 1.202925 0.000000 2.150259
v 1.202925 0.000000 0.124817
v 1.075645 0.000000 0.177538
v 1.075645 0.000000 -2.462462
v 1.202925 0.000000 -2.155183
v 1.202925 0.000000 -0.129741
v 1.255645 0.000000 -0.002462
v 1.255645 0.000000 -2.282462
v 1.202925 0.000000 -2.409741
v 1.075645 0.000000 2.457538
v 0.948366 0.000000 2.404817
v 1.202925 0.000000 2.404817
v 1.108644 0.000000 2.443870
v -1.264355 0.000000 2.277538
v -1.211634 0.000000 2.404817
v -1.211634 0.000000 2.150259
v -1.211634 0.000000 0.124817
v -1.211634 0.000000 -0.129741
v -1.084355 0.000000 0.177538
v -1.084355 0.000000 2.097538
v -1.084355 0.000000 -2.102462
v -1.084355 0.000000 -0.182462
v -1.084355 0.000000 2.457538
v -0.957075 0.000000 2.150259
v -0.957075 0.000000 0.124817
v -0.957075 0.000000 -0.129741
v -0.904355 0.000000 2.277538
v 0.895645 0.000000 2.277538
v -0.904355 0.000000 -0.002462
v 1.075645 0.000000 2.097538
v 0.948366 0.000000 2.150259
v 1.255645 0.000000 2.277538
v 1.216593 0.000000 2.371819
v -0.957075 0.000000 2.404817
v -0.908274 0.100000 2.268075
v -0.957075 0.100000 2.150259
v 0.895645 0.100000 -0.002462
v 0.899565 0.100000 2.268075
v 0.948366 0.100000 2.150259
v 0.948366 0.100000 -0.129741
v 1.066182 0.100000 2.101458
v 1.066182 0.100000 0.173618
v 1.066182 0.100000 -0.178542
v 1.066182 0.100000 -2.106382
v 0.948366 0.100000 0.124817
v -0.957075 0.100000 0.124817
v -1.074892 0.100000 2.101458
v -1.074892 0.100000 0.173618
v -1.074892 0.100000 -0.178542
v -1.074892 0.100000 -2.106382
v -0.904355 0.100000 -0.002462
v 0.948366 0.100000 -2.155183
v 0.899565 0.100000 -2.272999
v -0.957075 0.100000 -2.155183
v -0.908274 0.100000 -2.272999
v -0.957075 0.100000 -0.129741
v 0.899565 0.300000 -2.272999
v -0.908274 0.300000 -2.272999
v -0.908274 0.300000 2.268075
v 0.899565 0.300000 2.268075
v -1.074892 0.300000 2.101458
v -1.074892 0.300000 0.173618
v -1.074892 0.300000 -0.178542
v -1.074892 0.300000 -2.106382
v -1.264355 0.300000 -2.282462
v -1.237936 0.300000 -2.346241
v -1.211634 0.300000 -2.155183
v -1.084355 0.300000 0.177538
v -1.084355 0.300000 -2.102462
v -1.084355 0.300000 -0.182462
v -1.264355 0.300000 -0.002462
v -1.237936 0.300000 2.341318
v -1.264355 0.300000 2.277538
v -1.211634 0.300000 0.124817
v -1.211634 0.300000 2.150259
v -1.084355 0.300000 2.097538
v -1.211634 0.300000 -0.129741
v -1.213573 0.300000 2.400134
v -1.211634 0.300000 2.404817
v -1.154283 0.300000 2.428573
v -1.084355 0.300000 2.457538
v -0.904355 0.300000 2.277538
v 0.895645 0.300000 2.277538
v -0.957075 0.300000 2.404817
v 0.948366 0.300000 2.404817
v 1.145574 0.300000 2.428573
v 1.075645 0.300000 2.457538
v 1.204864 0.300000 2.400134
v 1.202925 0.300000 2.404817
v 1.229227 0.300000 2.341318
v 1.066182 0.300000 -2.106382
v 1.075645 0.300000 2.097538
v 1.075645 0.300000 0.177538
v 1.066182 0.300000 2.101458
v 1.066182 0.300000 0.173618
v 1.066182 0.300000 -0.178542
v 1.255645 0.300000 2.277538
v 1.202925 0.300000 2.150259
v 1.075645 0.300000 -0.182462
v 1.075645 0.300000 -2.102462
v 1.255645 0.300000 -0.002462
v 1.255645 0.300000 -2.282462
v 1.202925 0.300000 -2.155183
v 1.229227 0.300000 -2.346241
v 1.202925 0.300000 0.124817
v 1.202925 0.300000 -0.129741
v 1.204865 0.300000 -2.405058
v 1.202925 0.300000 -2.409741
v 1.145574 0.300000 -2.433496
v 0.895645 0.300000 -2.282462
v -0.904355 0.300000 -2.282462
v 0.948366 0.300000 -2.409741
v 1.075645 0.300000 -2.462462
v -1.154283 0.300000 -2.433496
v -1.084355 0.300000 -2.462462
v -0.957075 0.300000 -2.409741
v -1.213574 0.300000 -2.405058
v -1.211634 0.300000 -2.409741
vt 0.909091 0.535885
vt 0.909091 0.918660
vt 0.921590 0.921385
vt 0.957303 0.474625
vt 0.977273 0.500000
vt 1.000000 0.025000
vt 0.000000 0.975000
vt 0.042697 0.929171
vt 0.042697 0.525375
vt 0.950000 0.000000
vt 0.921590 0.012294
vt 0.957303 0.020080
vt 0.896329 0.475725
vt 0.874134 0.502090
vt 0.125866 0.497910
vt 0.050000 0.000000
vt 0.050000 0.000000
vt 0.014645 0.992678
vt 0.050000 1.000000
vt 0.050000 1.000000
vt 0.000000 0.025000
vt 0.000000 0.975000
vt 0.985355 0.992678
vt 1.000000 0.975000
vt 1.000000 0.975000
vt 0.985355 0.007322
vt 0.950000 0.000000
vt 0.014645 0.992678
vt 0.014645 0.007322
vt 0.000000 0.025000
vt 0.950000 1.000000
vt 0.985355 0.992678
vt 0.985355 0.007322
vt 0.014645 0.007322
vt 0.950000 1.000000
vt 1.000000 0.025000
vt 0.014645 0.992678
vt 0.050000 0.000000
vt 0.050000 1.000000
vt 0.014645 0.007322
vt 0.950000 1.000000
vt 0.000000 0.025000
vt 0.985355 0.992678
vt 0.000000 0.975000
vt 0.870791 0.974613
vt 0.119264 0.970414
vt 0.119264 0.970414
vt 1.000000 0.975000
vt 0.129209 0.025387
vt 0.880736 0.029586
vt 0.880736 0.029586
vt 0.055358 0.460870
vt 0.059581 0.059674
vt 0.055358 0.460870
vt 0.054587 0.534157
vt 0.050365 0.935353
vt 0.054587 0.534157
vt 0.022593 0.063441
vt 0.048103 0.462790
vt 0.022593 0.474186
vt 0.026740 0.015071
vt 0.050944 0.008575
vt 0.029046 0.013223
vt 0.873692 0.010604
vt 0.868836 0.024004
vt 0.131164 0.024004
vt 0.985355 0.007322
vt 0.969857 0.013370
vt 0.968645 0.012745
vt 0.972263 0.013868
vt 1.000000 0.025000
vt 0.981670 0.025505
vt 0.977407 0.936559
vt 0.951897 0.537210
vt 0.977407 0.525814
vt 0.973260 0.984929
vt 0.982679 0.973277
vt 0.949056 0.991425
vt 0.970954 0.986777
vt 0.131165 0.975996
vt 0.128435 0.975000
vt 0.868835 0.975996
vt 0.030143 0.986630
vt 0.031355 0.987255
vt 0.027737 0.986132
vt 0.018330 0.974495
vt 0.950000 0.000000
vt 0.944642 0.539130
vt 0.940419 0.940326
vt 0.940419 0.940326
vt 0.945413 0.465843
vt 0.949635 0.064647
vt 0.945413 0.465843
vt 0.875000 0.870370
vt 0.875000 0.944445
vt 0.931324 0.944445
vt 0.750000 0.870370
vt 0.750000 0.944445
vt 0.812637 0.944444
vt 0.625000 0.870370
vt 0.532407 0.870370
vt 0.500000 0.944445
vt 0.625000 0.944445
vt 0.375000 0.870370
vt 0.375000 0.907407
vt 0.490706 0.907407
vt 0.259293 0.907407
vt 0.250000 0.870370
vt 0.125000 0.944445
vt 0.250000 0.944445
vt 0.125000 0.870370
vt 0.000000 0.944444
vt 1.000000 0.870370
vt 0.875000 0.944444
vt 1.000000 0.944444
vt 0.750000 0.870370
vt 0.875000 0.870370
vt 0.740706 0.907407
vt 0.750000 0.944444
vt 0.509293 0.907407
vt 0.625000 0.870370
vt 0.500000 0.870370
vt 0.375000 0.870370
vt 0.500000 0.944444
vt 0.250000 0.944444
vt 0.375000 0.944444
vt 0.129599 0.944444
vt 0.187363 0.944444
vt 0.125000 0.870370
vt 0.068676 0.944444
vt 0.125000 0.944444
vt 0.875000 0.870370
vt 0.875000 0.907407
vt 0.990707 0.907407
vt 0.759293 0.907407
vt 0.750000 0.870370
vt 0.625000 0.870370
vt 0.750000 0.944444
vt 0.500000 0.870370
vt 0.625000 0.944444
vt 0.375000 0.870370
vt 0.375000 0.944444
vt 0.431324 0.944444
vt 0.312637 0.944445
vt 0.370401 0.944444
vt 0.250000 0.870370
vt 0.125000 0.944444
vt 0.250000 0.944444
vt 0.125000 0.870370
vt 0.000000 0.944444
vt 1.000000 0.870370
vt 0.875000 0.944444
vt 1.000000 0.944444
vt 0.750000 0.870370
vt 0.875000 0.870370
vt 0.657407 0.870370
vt 0.629599 0.944444
vt 0.687363 0.944444
vt 0.532407 0.870370
vt 0.500000 0.944444
vt 0.568676 0.944444
vt 0.375000 0.870370
vt 0.500000 0.870370
vt 0.250000 0.944444
vt 0.375000 0.944444
vt 0.240707 0.907407
vt 0.250000 0.870370
vt 0.009294 0.907407
vt 0.125000 0.870370
vt 0.000000 0.870370
vt 1.000000 0.870370
vt 0.875000 0.944444
vt 1.000000 0.944444
vt 0.750000 0.870370
vt 0.875000 0.870370
vt 0.625000 0.870370
vt 0.750000 0.944444
vt 0.500000 0.870370
vt 0.625000 0.944444
vt 0.375000 0.870370
vt 0.375000 0.907407
vt 0.490706 0.907407
vt 0.250000 0.907407
vt 0.250000 0.870370
vt 0.125000 0.907407
vt 0.000000 0.870370
vt 0.000000 0.944444
vt 0.009294 0.907407
vt 0.990707 0.907407
vt 1.000000 0.944444
vt 1.000000 0.870370
vt 0.750000 0.870370
vt 0.875000 0.907407
vt 0.875000 0.870370
vt 0.625000 0.870370
vt 0.750000 0.907407
vt 0.509293 0.907407
vt 0.500000 0.870370
vt 0.375000 0.870370
vt 0.500000 0.944444
vt 0.250000 0.944444
vt 0.375000 0.944444
vt 0.250000 0.870370
vt 0.125000 0.944444
vt 0.125000 0.870370
vt 0.000000 0.944444
vt 0.896592 0.533160
vt 0.090909 0.009569
vt 0.042697 0.020080
vt 0.909091 0.009569
vt 0.860879 0.020080
vt 0.139121 0.020080
vt 0.159091 0.045455
vt 0.139121 0.070829
vt 0.090909 0.081340
vt 0.090909 0.464115
vt 0.840909 0.045455
vt 0.139121 0.474625
vt 0.860879 0.474625
vt 0.159091 0.500000
vt 0.860879 0.070829
vt 0.909091 0.081340
vt 0.957303 0.070829
vt 0.909091 0.464115
vt 0.139121 0.525375
vt 0.090909 0.535885
vt 0.090909 0.918660
vt 0.840909 0.500000
vt 0.962480 0.026659
vt 0.977273 0.045455
vt 0.139121 0.929171
vt 0.957303 0.979920
vt 0.977273 0.954545
vt 0.957303 0.929171
vt 0.957303 0.525375
vt 0.860879 0.525375
vt 0.159091 0.954546
vt 0.860879 0.929171
vt 0.840909 0.954545
vt 0.022727 0.045455
vt 0.022727 0.500000
vt 0.042697 0.070829
vt 0.042697 0.979920
vt 0.909091 0.990431
vt 0.860879 0.979920
vt 0.139121 0.979920
vt 0.042697 0.474625
vt 0.090909 0.990431
vt 0.022727 0.954545
vt 0.099235 0.945783
vt 0.050365 0.935353
vt 0.103671 0.524275
vt 0.891336 0.950208
vt 0.895772 0.528700
vt 0.104228 0.471300
vt 0.108664 0.049792
vt 0.900765 0.054218
vt 0.949635 0.064647
vt 0.870791 0.974613
vt 0.129209 0.025387
vt 0.059581 0.059674
vt 0.017321 0.026723
vt 0.012026 0.041394
vt 0.012026 0.958606
vt 0.017321 0.973277
vt 0.022593 0.936559
vt 0.012026 0.500000
vt 0.048103 0.065874
vt 0.050000 0.064465
vt 0.050000 0.463549
vt 0.050000 0.536451
vt 0.050000 0.935536
vt 0.048103 0.934126
vt 0.048103 0.537210
vt 0.022593 0.525814
vt 0.027737 0.013868
vt 0.084366 0.005053
vt 0.053224 0.008103
vt 0.946777 0.008103
vt 0.915634 0.005053
vt 0.126308 0.010604
vt 0.871565 0.025000
vt 0.128435 0.025000
vt 0.987974 0.958606
vt 0.987974 0.041394
vt 0.982679 0.026723
vt 0.977407 0.063441
vt 0.987974 0.500000
vt 0.951897 0.934126
vt 0.950000 0.935536
vt 0.950000 0.536451
vt 0.950000 0.463549
vt 0.950000 0.064465
vt 0.951897 0.462790
vt 0.951897 0.065874
vt 0.977407 0.474186
vt 0.972263 0.986132
vt 0.915634 0.994947
vt 0.946776 0.991897
vt 0.053224 0.991897
vt 0.084366 0.994947
vt 0.126308 0.989396
vt 0.873692 0.989396
vt 0.871565 0.975000
vt 0.944642 0.539130
vt 1.000000 0.944445
vt 1.000000 0.870370
vt 0.870401 0.944444
vt 0.500000 0.870370
vt 0.490706 0.944444
vt 0.259293 0.944444
vt 0.000000 0.870370
vt 0.625000 0.907407
vt 0.740706 0.944444
vt 0.509293 0.944444
vt 0.250000 0.870370
vt 0.000000 0.870370
vt 0.000000 0.944444
vt 0.990707 0.944444
vt 1.000000 0.944444
vt 1.000000 0.870370
vt 0.759293 0.944445
vt 0.500000 0.944444
vt 0.000000 0.870370
vt 0.750000 0.944444
vt 0.625000 0.870370
vt 0.625000 0.944444
vt 0.240707 0.944444
vt 0.125000 0.907407
vt 0.000000 0.944444
vt 0.009294 0.944444
vt 0.500000 0.944444
vt 0.490706 0.944444
vt 0.125000 0.870370
vt 0.032407 0.870370
vt 0.009294 0.944444
vt 0.990707 0.944444
vt 0.625000 0.907407
vt 0.509293 0.944444
vt 0.000000 0.870370
vn 0.0000 -1.0000 0.0000
vn 0.0000 1.0000 0.0000
vn 0.1863 0.0000 0.9825
vn -0.1863 0.0000 0.9825
vn -0.6942 0.0000 -0.7198
vn -0.1864 0.0000 -0.9825
vn -0.1863 0.0000 -0.9825
vn -0.9789 0.0000 0.2041
vn -0.9789 0.0000 -0.2041
vn 0.6942 0.0000 -0.7198
vn 0.9789 0.0000 -0.2041
vn 0.6942 0.0000 0.7198
vn -0.6942 0.0000 0.7198
vn 0.1863 0.0000 -0.9825
vn 0.9789 0.0000 0.2041
vn 0.1864 0.0000 -0.9825
vn 0.0000 0.0000 1.0000
vn -0.0000 0.0000 -1.0000
vn 1.0000 0.0000 0.0000
vn 0.1864 0.0000 0.9825
vn -1.0000 0.0000 0.0000
vn -0.7071 -0.0000 0.7071
vn -0.3827 -0.0000 0.9239
vn -0.9239 0.0000 0.3827
vn -0.7071 0.0000 -0.7071
vn -0.3827 0.0000 -0.9239
vn 0.7071 -0.0000 -0.7071
vn 0.3827 -0.0000 -0.9239
vn 0.9239 0.0000 -0.3827
vn 0.7071 0.0000 0.7071
vn -0.9239 0.0000 -0.3827
vn 0.9239 0.0000 0.3827
vn 0.3827 -0.0000 0.9239
usemtl None
s 1
f 54/1/1 53/2/1 52/3/1
f 56/4/1 61/5/1 4/6/1
f 8/7/1 40/8/1 72/9/1
f 5/10/1 67/11/1 66/12/1
f 99/13/2 91/14/2 105/15/2
f 5/10/3 24/16/4 1/17/4
f 9/18/5 31/19/6 7/20/7
f 2/21/8 21/22/9 8/7/9
f 12/23/10 28/24/11 11/25/11
f 6/26/12 25/27/3 5/10/3
f 8/7/9 32/28/5 9/18/5
f 3/29/13 22/30/8 2/21/8
f 10/31/14 29/32/10 12/23/10
f 4/6/15 26/33/12 6/26/12
f 1/17/4 23/34/13 3/29/13
f 7/20/7 30/35/14 10/31/14
f 11/25/11 27/36/15 4/6/15
f 21/22/9 36/37/5 32/28/5
f 25/27/3 17/38/4 24/16/4
f 32/28/5 35/39/7 31/19/6
f 24/16/4 18/40/13 23/34/13
f 31/19/6 34/41/16 30/35/14
f 23/34/13 19/42/8 22/30/8
f 30/35/14 33/43/10 29/32/10
f 22/30/8 20/44/9 21/22/9
f 107/45/17 112/46/17 109/47/17
f 29/32/10 15/48/11 28/24/11
f 89/49/18 114/50/18 92/51/18
f 116/52/19 101/53/19 102/54/19
f 103/55/19 118/56/19 117/57/19
f 129/58/2 122/59/2 128/60/2
f 132/61/2 19/42/2 18/40/2
f 17/38/2 134/62/2 133/63/2
f 139/64/2 137/65/2 136/66/2
f 13/67/2 142/68/2 143/69/2
f 142/70/2 16/71/2 144/72/2
f 157/73/2 153/74/2 160/75/2
f 15/48/2 161/76/2 158/77/2
f 34/41/2 163/78/2 162/79/2
f 165/80/2 112/81/2 164/82/2
f 36/37/2 171/83/2 172/84/2
f 171/85/2 20/44/2 120/86/2
f 26/33/12 14/87/20 25/27/3
f 27/36/15 13/67/12 26/33/12
f 97/88/21 145/89/21 98/90/21
f 96/91/21 148/92/21 149/93/21
f 28/24/11 16/71/15 27/36/15
f 63/94/22 162/95/22 163/96/23
f 62/97/21 156/98/21 158/99/24
f 59/100/25 156/98/21 62/97/21
f 52/101/26 154/102/18 157/103/25
f 48/104/27 106/105/27 98/106/28
f 107/107/29 48/104/27 45/108/19
f 45/108/19 166/109/30 164/110/19
f 51/111/30 167/112/17 166/109/30
f 41/113/17 170/114/22 169/115/17
f 42/116/21 170/114/22 44/117/22
f 42/116/21 109/118/31 165/119/21
f 104/120/26 43/121/25 75/122/18
f 40/123/27 123/124/18 75/122/18
f 40/123/27 119/125/19 121/126/27
f 171/127/32 120/128/32 39/129/30
f 168/130/33 172/131/30 39/129/30
f 78/132/22 90/133/22 101/134/23
f 89/135/24 78/132/22 81/136/21
f 88/137/25 136/138/21 81/136/21
f 77/139/18 138/140/25 88/137/25
f 69/141/27 133/142/27 134/143/28
f 126/144/29 132/145/29 69/141/27
f 68/146/19 129/147/30 127/148/19
f 70/149/30 130/150/17 129/147/30
f 84/151/17 152/152/22 146/153/17
f 86/154/21 152/152/22 55/155/22
f 87/156/31 142/157/31 144/158/31
f 67/159/26 141/160/18 140/161/26
f 65/162/27 141/160/18 64/163/18
f 65/162/27 137/164/19 139/165/27
f 92/166/32 137/164/19 82/167/19
f 95/168/33 85/169/30 84/170/17
f 54/171/17 160/172/22 153/173/17
f 61/174/21 160/172/22 60/175/22
f 56/176/25 155/177/21 61/174/21
f 57/178/18 159/179/25 56/176/25
f 49/180/27 99/181/27 96/182/28
f 49/180/27 91/183/19 99/181/27
f 50/184/19 94/185/30 91/183/19
f 54/186/17 153/187/17 97/188/33
f 103/189/23 124/190/17 76/191/17
f 83/192/21 110/193/22 80/194/22
f 79/195/25 105/196/21 83/192/21
f 102/197/26 79/195/25 73/198/18
f 71/199/27 122/200/18 73/198/18
f 71/199/27 125/201/19 128/202/27
f 37/203/19 131/204/30 125/201/19
f 72/205/30 124/206/17 131/204/30
f 54/1/1 46/207/1 53/2/1
f 5/10/1 1/17/1 77/208/1
f 1/17/1 3/29/1 69/209/1
f 77/208/1 1/17/1 69/209/1
f 64/210/1 67/11/1 5/10/1
f 65/211/1 64/210/1 88/212/1
f 64/210/1 5/10/1 77/208/1
f 88/212/1 64/210/1 77/208/1
f 88/212/1 81/213/1 65/211/1
f 78/214/1 74/215/1 73/216/1
f 65/211/1 81/213/1 82/217/1
f 81/213/1 78/214/1 82/217/1
f 78/214/1 73/216/1 79/218/1
f 78/214/1 79/218/1 49/219/1
f 79/218/1 83/220/1 49/219/1
f 85/221/1 82/217/1 78/214/1
f 84/222/1 85/221/1 49/219/1
f 85/221/1 78/214/1 49/219/1
f 55/223/1 84/222/1 57/224/1
f 80/225/1 76/226/1 75/227/1
f 84/222/1 49/219/1 57/224/1
f 83/220/1 80/225/1 50/228/1
f 49/219/1 83/220/1 50/228/1
f 4/6/1 87/229/1 86/230/1
f 80/225/1 75/227/1 43/231/1
f 4/6/1 86/230/1 55/223/1
f 12/23/1 11/25/1 63/232/1
f 11/25/1 4/6/1 61/5/1
f 62/233/1 11/25/1 59/234/1
f 62/233/1 63/232/1 11/25/1
f 54/1/1 52/3/1 60/235/1
f 52/3/1 59/234/1 60/235/1
f 60/235/1 59/234/1 11/25/1
f 80/225/1 43/231/1 47/236/1
f 43/231/1 42/237/1 48/238/1
f 42/237/1 45/239/1 48/238/1
f 48/238/1 53/2/1 46/207/1
f 43/231/1 48/238/1 47/236/1
f 48/238/1 46/207/1 47/236/1
f 47/236/1 50/228/1 80/225/1
f 61/5/1 60/235/1 11/25/1
f 55/223/1 57/224/1 56/4/1
f 55/223/1 56/4/1 4/6/1
f 68/240/1 69/209/1 2/21/1
f 69/209/1 3/29/1 2/21/1
f 2/21/1 8/7/1 37/241/1
f 68/240/1 2/21/1 70/242/1
f 8/7/1 9/18/1 39/243/1
f 9/18/1 7/20/1 39/243/1
f 7/20/1 10/31/1 58/244/1
f 10/31/1 12/23/1 63/232/1
f 58/244/1 10/31/1 63/232/1
f 51/245/1 45/239/1 42/237/1
f 58/244/1 51/245/1 44/246/1
f 51/245/1 42/237/1 44/246/1
f 73/216/1 74/215/1 70/242/1
f 2/21/1 37/241/1 71/247/1
f 70/242/1 2/21/1 71/247/1
f 7/20/1 58/244/1 41/248/1
f 58/244/1 44/246/1 41/248/1
f 71/247/1 73/216/1 70/242/1
f 7/20/1 41/248/1 39/243/1
f 75/227/1 76/226/1 72/9/1
f 72/9/1 37/241/1 8/7/1
f 8/7/1 39/243/1 38/249/1
f 40/8/1 75/227/1 72/9/1
f 8/7/1 38/249/1 40/8/1
f 66/12/1 87/229/1 6/26/1
f 87/229/1 4/6/1 6/26/1
f 6/26/1 5/10/1 66/12/1
f 108/250/2 104/251/2 103/55/2
f 108/250/2 103/55/2 110/252/2
f 107/45/2 109/47/2 106/253/2
f 109/47/2 108/250/2 106/253/2
f 97/88/2 98/90/2 106/253/2
f 108/250/2 110/252/2 106/253/2
f 110/252/2 105/15/2 94/254/2
f 106/253/2 110/252/2 94/254/2
f 100/255/2 102/54/2 101/53/2
f 105/15/2 100/255/2 99/13/2
f 100/255/2 101/53/2 90/256/2
f 90/256/2 89/49/2 92/51/2
f 100/255/2 90/256/2 99/13/2
f 97/88/2 106/253/2 94/254/2
f 90/256/2 92/51/2 93/257/2
f 93/257/2 95/258/2 96/91/2
f 90/256/2 93/257/2 99/13/2
f 91/14/2 94/254/2 105/15/2
f 93/257/2 96/91/2 99/13/2
f 5/10/3 25/27/3 24/16/4
f 9/18/5 32/28/5 31/19/6
f 2/21/8 22/30/8 21/22/9
f 12/23/10 29/32/10 28/24/11
f 6/26/12 26/33/12 25/27/3
f 8/7/9 21/22/9 32/28/5
f 3/29/13 23/34/13 22/30/8
f 10/31/14 30/35/14 29/32/10
f 4/6/15 27/36/15 26/33/12
f 1/17/4 24/16/4 23/34/13
f 7/20/7 31/19/6 30/35/14
f 11/25/11 28/24/11 27/36/15
f 21/22/9 20/44/9 36/37/5
f 25/27/3 14/87/20 17/38/4
f 32/28/5 36/37/5 35/39/7
f 24/16/4 17/38/4 18/40/13
f 31/19/6 35/39/7 34/41/16
f 23/34/13 18/40/13 19/42/8
f 30/35/14 34/41/16 33/43/10
f 22/30/8 19/42/8 20/44/9
f 107/45/17 111/259/17 112/46/17
f 29/32/10 33/43/10 15/48/11
f 89/49/18 113/260/18 114/50/18
f 116/52/19 115/261/19 101/53/19
f 103/55/19 104/251/19 118/56/19
f 19/42/2 126/262/2 127/263/2
f 19/42/2 127/263/2 129/58/2
f 119/264/2 120/265/2 20/44/2
f 121/266/2 119/264/2 20/44/2
f 20/44/2 19/42/2 125/267/2
f 19/42/2 129/58/2 128/60/2
f 125/267/2 19/42/2 128/60/2
f 130/268/2 115/269/2 116/270/2
f 117/271/2 118/272/2 123/273/2
f 124/274/2 117/271/2 123/273/2
f 124/274/2 123/273/2 121/266/2
f 131/275/2 124/274/2 121/266/2
f 129/58/2 130/268/2 122/59/2
f 130/268/2 116/270/2 122/59/2
f 131/275/2 121/266/2 20/44/2
f 125/267/2 131/275/2 20/44/2
f 132/61/2 126/262/2 19/42/2
f 133/63/2 132/276/2 18/40/2
f 18/40/2 17/38/2 133/63/2
f 135/277/2 134/278/2 17/38/2
f 14/87/2 140/279/2 141/280/2
f 14/87/2 141/280/2 135/277/2
f 141/280/2 139/64/2 138/281/2
f 135/277/2 17/38/2 14/87/2
f 138/281/2 135/277/2 141/280/2
f 114/282/2 113/283/2 136/66/2
f 136/66/2 138/281/2 139/64/2
f 137/65/2 114/282/2 136/66/2
f 143/69/2 140/279/2 14/87/2
f 14/87/2 13/67/2 143/69/2
f 142/70/2 13/67/2 16/71/2
f 15/48/2 158/77/2 156/284/2
f 15/48/2 156/284/2 157/73/2
f 151/285/2 144/286/2 16/71/2
f 152/287/2 151/285/2 16/71/2
f 16/71/2 15/48/2 155/288/2
f 15/48/2 157/73/2 160/75/2
f 155/288/2 15/48/2 160/75/2
f 154/289/2 145/290/2 150/291/2
f 149/292/2 148/293/2 147/294/2
f 148/293/2 146/295/2 147/294/2
f 147/294/2 146/295/2 152/287/2
f 159/296/2 147/294/2 152/287/2
f 157/73/2 154/289/2 153/74/2
f 154/289/2 150/291/2 153/74/2
f 159/296/2 152/287/2 16/71/2
f 155/288/2 159/296/2 16/71/2
f 15/48/2 33/43/2 161/76/2
f 162/79/2 161/297/2 33/43/2
f 33/43/2 34/41/2 162/79/2
f 167/298/2 163/299/2 34/41/2
f 35/39/2 168/300/2 169/301/2
f 35/39/2 169/301/2 167/298/2
f 169/301/2 170/302/2 166/303/2
f 167/298/2 34/41/2 35/39/2
f 166/303/2 167/298/2 169/301/2
f 112/81/2 111/304/2 164/82/2
f 164/82/2 166/303/2 165/80/2
f 166/303/2 170/302/2 165/80/2
f 172/84/2 168/300/2 35/39/2
f 35/39/2 36/37/2 172/84/2
f 171/85/2 36/37/2 20/44/2
f 26/33/12 13/67/12 14/87/20
f 27/36/15 16/71/15 13/67/12
f 97/88/21 150/305/21 145/89/21
f 96/91/21 95/258/21 148/92/21
f 28/24/11 15/48/11 16/71/15
f 163/96/23 167/306/17 58/307/17
f 58/307/17 63/94/22 163/96/23
f 162/95/22 63/94/22 161/308/24
f 63/94/22 62/97/21 158/99/24
f 161/308/24 63/94/22 158/99/24
f 59/100/25 157/103/25 156/98/21
f 157/103/25 59/100/25 52/101/26
f 52/101/26 53/309/18 154/102/18
f 145/310/28 154/102/18 98/106/28
f 154/102/18 53/309/18 98/106/28
f 53/309/18 48/104/27 98/106/28
f 45/108/19 164/110/19 107/107/29
f 164/110/19 111/311/29 107/107/29
f 107/107/29 106/105/27 48/104/27
f 45/108/19 51/111/30 166/109/30
f 51/111/30 58/312/17 167/112/17
f 41/113/17 44/117/22 170/114/22
f 42/116/21 165/119/21 170/114/22
f 42/116/21 43/121/25 109/118/31
f 43/121/25 108/313/25 109/118/31
f 109/118/31 112/314/31 165/119/21
f 104/120/26 108/313/25 43/121/25
f 75/122/18 123/124/18 104/120/26
f 123/124/18 118/315/26 104/120/26
f 40/123/27 121/126/27 123/124/18
f 40/123/27 38/316/19 119/125/19
f 120/128/32 119/125/19 38/316/19
f 38/316/19 39/129/30 120/128/32
f 39/129/30 172/131/30 171/127/32
f 39/129/30 41/317/17 168/130/33
f 41/317/17 169/318/17 168/130/33
f 115/319/23 130/320/17 101/134/23
f 130/320/17 74/321/17 101/134/23
f 74/321/17 78/132/22 101/134/23
f 89/135/24 90/133/22 78/132/22
f 81/136/21 136/138/21 89/135/24
f 136/138/21 113/322/24 89/135/24
f 88/137/25 138/140/25 136/138/21
f 77/139/18 135/323/18 138/140/25
f 135/323/18 77/139/18 134/143/28
f 77/139/18 69/141/27 134/143/28
f 132/145/29 133/142/27 69/141/27
f 69/141/27 68/146/19 126/144/29
f 68/146/19 127/148/19 126/144/29
f 68/146/19 70/149/30 129/147/30
f 70/149/30 74/324/17 130/150/17
f 84/151/17 55/155/22 152/152/22
f 86/154/21 151/325/21 152/152/22
f 151/325/21 86/154/21 144/158/31
f 86/154/21 87/156/31 144/158/31
f 87/156/31 66/326/25 142/157/31
f 66/326/25 143/327/25 142/157/31
f 143/327/25 66/326/25 140/161/26
f 66/326/25 67/159/26 140/161/26
f 67/159/26 64/163/18 141/160/18
f 65/162/27 139/165/27 141/160/18
f 65/162/27 82/167/19 137/164/19
f 92/166/32 114/328/32 137/164/19
f 82/167/19 85/169/30 92/166/32
f 85/169/30 93/329/30 92/166/32
f 95/168/33 93/329/30 85/169/30
f 84/170/17 146/330/17 95/168/33
f 146/330/17 148/331/33 95/168/33
f 54/171/17 60/175/22 160/172/22
f 61/174/21 155/177/21 160/172/22
f 56/176/25 159/179/25 155/177/21
f 57/178/18 147/332/18 159/179/25
f 149/333/28 147/332/18 96/182/28
f 147/332/18 57/178/18 96/182/28
f 57/178/18 49/180/27 96/182/28
f 49/180/27 50/184/19 91/183/19
f 50/184/19 47/334/30 94/185/30
f 97/188/33 94/185/30 46/335/33
f 94/185/30 47/334/30 46/335/33
f 153/187/17 150/336/33 97/188/33
f 97/188/33 46/335/33 54/186/17
f 103/189/23 117/337/23 124/190/17
f 76/191/17 80/194/22 103/189/23
f 80/194/22 110/193/22 103/189/23
f 83/192/21 105/196/21 110/193/22
f 79/195/25 100/338/25 105/196/21
f 102/197/26 100/338/25 79/195/25
f 73/198/18 122/200/18 102/197/26
f 122/200/18 116/339/26 102/197/26
f 71/199/27 128/202/27 122/200/18
f 71/199/27 37/203/19 125/201/19
f 37/203/19 72/205/30 131/204/30
f 72/205/30 76/340/17 124/206/17
